<mxfile host="app.diagrams.net" agent="Mozilla/5.0 (Windows NT 10.0; Win64; x64) AppleWebKit/537.36 (KHTML, like Gecko) Chrome/135.0.0.0 Safari/537.36" version="26.2.9">
  <diagram name="第 1 页" id="HQs-CLED2X2MUGQiXkbR">
    <mxGraphModel dx="2899" dy="1808" grid="1" gridSize="10" guides="1" tooltips="1" connect="1" arrows="1" fold="1" page="1" pageScale="1" pageWidth="827" pageHeight="1169" math="0" shadow="0">
      <root>
        <mxCell id="0" />
        <mxCell id="1" parent="0" />
        <mxCell id="Cp54ddVQhLDNcRKYRIW8-45" style="edgeStyle=orthogonalEdgeStyle;rounded=0;orthogonalLoop=1;jettySize=auto;html=1;exitX=0.5;exitY=1;exitDx=0;exitDy=0;entryX=0.5;entryY=0;entryDx=0;entryDy=0;strokeColor=#00CC00;" parent="1" source="Cp54ddVQhLDNcRKYRIW8-46" target="Cp54ddVQhLDNcRKYRIW8-13" edge="1">
          <mxGeometry relative="1" as="geometry" />
        </mxCell>
        <mxCell id="IefzmPHaQlymBjuVDhgg-29" style="edgeStyle=orthogonalEdgeStyle;rounded=0;orthogonalLoop=1;jettySize=auto;html=1;exitX=1;exitY=0.5;exitDx=0;exitDy=0;entryX=0;entryY=0.5;entryDx=0;entryDy=0;" parent="1" source="HEfscEinG6NMkhZ_wRlj-1" target="Lhvy_onTUj4dt_1nR8uf-39" edge="1">
          <mxGeometry relative="1" as="geometry" />
        </mxCell>
        <mxCell id="IefzmPHaQlymBjuVDhgg-30" style="edgeStyle=orthogonalEdgeStyle;rounded=0;orthogonalLoop=1;jettySize=auto;html=1;exitX=1;exitY=0.5;exitDx=0;exitDy=0;entryX=0;entryY=0.5;entryDx=0;entryDy=0;" parent="1" source="HEfscEinG6NMkhZ_wRlj-1" target="IefzmPHaQlymBjuVDhgg-13" edge="1">
          <mxGeometry relative="1" as="geometry" />
        </mxCell>
        <mxCell id="HEfscEinG6NMkhZ_wRlj-1" value="drm_crtc_vblank_off" style="text;whiteSpace=wrap;html=1;" parent="1" vertex="1">
          <mxGeometry x="140" y="-220" width="120" height="30" as="geometry" />
        </mxCell>
        <mxCell id="IefzmPHaQlymBjuVDhgg-1" style="edgeStyle=orthogonalEdgeStyle;rounded=0;orthogonalLoop=1;jettySize=auto;html=1;exitX=0.5;exitY=1;exitDx=0;exitDy=0;entryX=0.5;entryY=0;entryDx=0;entryDy=0;" parent="1" source="HEfscEinG6NMkhZ_wRlj-2" target="Lhvy_onTUj4dt_1nR8uf-58" edge="1">
          <mxGeometry relative="1" as="geometry" />
        </mxCell>
        <mxCell id="HEfscEinG6NMkhZ_wRlj-2" value="drm_vblank_init" style="text;whiteSpace=wrap;html=1;" parent="1" vertex="1">
          <mxGeometry x="161" y="-740" width="100" height="30" as="geometry" />
        </mxCell>
        <mxCell id="Lhvy_onTUj4dt_1nR8uf-33" style="edgeStyle=orthogonalEdgeStyle;rounded=0;orthogonalLoop=1;jettySize=auto;html=1;exitX=0.5;exitY=1;exitDx=0;exitDy=0;entryX=0.5;entryY=0;entryDx=0;entryDy=0;" parent="1" source="HEfscEinG6NMkhZ_wRlj-4" target="Lhvy_onTUj4dt_1nR8uf-5" edge="1">
          <mxGeometry relative="1" as="geometry">
            <Array as="points">
              <mxPoint x="320" y="190" />
              <mxPoint x="390" y="190" />
            </Array>
          </mxGeometry>
        </mxCell>
        <mxCell id="HEfscEinG6NMkhZ_wRlj-4" value="drm_crtc_vblank_on" style="text;whiteSpace=wrap;html=1;" parent="1" vertex="1">
          <mxGeometry x="260" y="60" width="120" height="30" as="geometry" />
        </mxCell>
        <mxCell id="Lhvy_onTUj4dt_1nR8uf-4" style="edgeStyle=orthogonalEdgeStyle;rounded=0;orthogonalLoop=1;jettySize=auto;html=1;exitX=0.5;exitY=1;exitDx=0;exitDy=0;entryX=0.5;entryY=0;entryDx=0;entryDy=0;" parent="1" source="Lhvy_onTUj4dt_1nR8uf-1" target="Lhvy_onTUj4dt_1nR8uf-2" edge="1">
          <mxGeometry relative="1" as="geometry" />
        </mxCell>
        <mxCell id="Lhvy_onTUj4dt_1nR8uf-1" value="__enable_vblank" style="text;whiteSpace=wrap;html=1;" parent="1" vertex="1">
          <mxGeometry x="190" y="280" width="100" height="30" as="geometry" />
        </mxCell>
        <mxCell id="Lhvy_onTUj4dt_1nR8uf-2" value="&lt;font color=&quot;#ff3333&quot;&gt;crtc-&amp;gt;funcs-&amp;gt;enable_vblank&lt;/font&gt;" style="text;whiteSpace=wrap;html=1;" parent="1" vertex="1">
          <mxGeometry x="160" y="340" width="160" height="30" as="geometry" />
        </mxCell>
        <mxCell id="Lhvy_onTUj4dt_1nR8uf-6" style="edgeStyle=orthogonalEdgeStyle;rounded=0;orthogonalLoop=1;jettySize=auto;html=1;exitX=0.5;exitY=1;exitDx=0;exitDy=0;entryX=0.5;entryY=0;entryDx=0;entryDy=0;" parent="1" source="Lhvy_onTUj4dt_1nR8uf-5" target="Lhvy_onTUj4dt_1nR8uf-1" edge="1">
          <mxGeometry relative="1" as="geometry">
            <Array as="points">
              <mxPoint x="390" y="260" />
              <mxPoint x="240" y="260" />
            </Array>
          </mxGeometry>
        </mxCell>
        <mxCell id="Lhvy_onTUj4dt_1nR8uf-8" style="edgeStyle=orthogonalEdgeStyle;rounded=0;orthogonalLoop=1;jettySize=auto;html=1;exitX=0.5;exitY=1;exitDx=0;exitDy=0;entryX=0.5;entryY=0;entryDx=0;entryDy=0;" parent="1" source="Lhvy_onTUj4dt_1nR8uf-5" target="Lhvy_onTUj4dt_1nR8uf-7" edge="1">
          <mxGeometry relative="1" as="geometry">
            <Array as="points">
              <mxPoint x="390" y="260" />
              <mxPoint x="485" y="260" />
            </Array>
          </mxGeometry>
        </mxCell>
        <mxCell id="Lhvy_onTUj4dt_1nR8uf-18" style="edgeStyle=orthogonalEdgeStyle;rounded=0;orthogonalLoop=1;jettySize=auto;html=1;exitX=0.5;exitY=1;exitDx=0;exitDy=0;entryX=0.5;entryY=0;entryDx=0;entryDy=0;" parent="1" source="Lhvy_onTUj4dt_1nR8uf-5" target="Lhvy_onTUj4dt_1nR8uf-17" edge="1">
          <mxGeometry relative="1" as="geometry">
            <Array as="points">
              <mxPoint x="390" y="260" />
              <mxPoint x="700" y="260" />
            </Array>
          </mxGeometry>
        </mxCell>
        <mxCell id="Lhvy_onTUj4dt_1nR8uf-5" value="drm_vblank_enable" style="text;whiteSpace=wrap;html=1;" parent="1" vertex="1">
          <mxGeometry x="335" y="220" width="110" height="30" as="geometry" />
        </mxCell>
        <mxCell id="IefzmPHaQlymBjuVDhgg-18" style="edgeStyle=orthogonalEdgeStyle;rounded=0;orthogonalLoop=1;jettySize=auto;html=1;exitX=0.5;exitY=1;exitDx=0;exitDy=0;entryX=0.5;entryY=0;entryDx=0;entryDy=0;" parent="1" source="Lhvy_onTUj4dt_1nR8uf-7" target="Lhvy_onTUj4dt_1nR8uf-9" edge="1">
          <mxGeometry relative="1" as="geometry" />
        </mxCell>
        <mxCell id="IefzmPHaQlymBjuVDhgg-19" style="edgeStyle=orthogonalEdgeStyle;rounded=0;orthogonalLoop=1;jettySize=auto;html=1;exitX=0.5;exitY=1;exitDx=0;exitDy=0;entryX=0.5;entryY=0;entryDx=0;entryDy=0;" parent="1" source="Lhvy_onTUj4dt_1nR8uf-7" target="Lhvy_onTUj4dt_1nR8uf-13" edge="1">
          <mxGeometry relative="1" as="geometry" />
        </mxCell>
        <mxCell id="Lhvy_onTUj4dt_1nR8uf-7" value="drm_update_vblank_count" style="text;whiteSpace=wrap;html=1;" parent="1" vertex="1">
          <mxGeometry x="410" y="280" width="150" height="30" as="geometry" />
        </mxCell>
        <mxCell id="Lhvy_onTUj4dt_1nR8uf-12" style="edgeStyle=orthogonalEdgeStyle;rounded=0;orthogonalLoop=1;jettySize=auto;html=1;exitX=0.5;exitY=1;exitDx=0;exitDy=0;entryX=0.5;entryY=0;entryDx=0;entryDy=0;" parent="1" source="Lhvy_onTUj4dt_1nR8uf-9" target="Lhvy_onTUj4dt_1nR8uf-11" edge="1">
          <mxGeometry relative="1" as="geometry" />
        </mxCell>
        <mxCell id="Lhvy_onTUj4dt_1nR8uf-9" value="__get_vblank_counter" style="text;whiteSpace=wrap;html=1;" parent="1" vertex="1">
          <mxGeometry x="333" y="350" width="126" height="30" as="geometry" />
        </mxCell>
        <mxCell id="Lhvy_onTUj4dt_1nR8uf-11" value="&lt;font color=&quot;#ff3333&quot;&gt;crtc-&amp;gt;funcs-&amp;gt;get_vblank_counter&lt;/font&gt;" style="text;whiteSpace=wrap;html=1;" parent="1" vertex="1">
          <mxGeometry x="306" y="410" width="180" height="30" as="geometry" />
        </mxCell>
        <mxCell id="IefzmPHaQlymBjuVDhgg-20" style="edgeStyle=orthogonalEdgeStyle;rounded=0;orthogonalLoop=1;jettySize=auto;html=1;exitX=0.5;exitY=1;exitDx=0;exitDy=0;entryX=0.5;entryY=0;entryDx=0;entryDy=0;" parent="1" source="Lhvy_onTUj4dt_1nR8uf-13" target="Lhvy_onTUj4dt_1nR8uf-15" edge="1">
          <mxGeometry relative="1" as="geometry" />
        </mxCell>
        <mxCell id="Lhvy_onTUj4dt_1nR8uf-13" value="get_vblank_timestamp" style="text;whiteSpace=wrap;html=1;" parent="1" vertex="1">
          <mxGeometry x="488" y="350" width="130" height="30" as="geometry" />
        </mxCell>
        <mxCell id="Lhvy_onTUj4dt_1nR8uf-15" value="&lt;font color=&quot;#ff3333&quot;&gt;crtc-&amp;gt;funcs-&amp;gt;get_vblank_timestamp&lt;/font&gt;" style="text;whiteSpace=wrap;html=1;" parent="1" vertex="1">
          <mxGeometry x="453" y="390" width="200" height="30" as="geometry" />
        </mxCell>
        <mxCell id="Lhvy_onTUj4dt_1nR8uf-24" style="edgeStyle=orthogonalEdgeStyle;rounded=0;orthogonalLoop=1;jettySize=auto;html=1;exitX=0.5;exitY=1;exitDx=0;exitDy=0;entryX=0.5;entryY=0;entryDx=0;entryDy=0;" parent="1" source="Lhvy_onTUj4dt_1nR8uf-17" target="Lhvy_onTUj4dt_1nR8uf-19" edge="1">
          <mxGeometry relative="1" as="geometry" />
        </mxCell>
        <mxCell id="Lhvy_onTUj4dt_1nR8uf-17" value="store_vblank" style="text;whiteSpace=wrap;html=1;" parent="1" vertex="1">
          <mxGeometry x="660" y="280" width="80" height="30" as="geometry" />
        </mxCell>
        <mxCell id="Lhvy_onTUj4dt_1nR8uf-25" style="edgeStyle=orthogonalEdgeStyle;rounded=0;orthogonalLoop=1;jettySize=auto;html=1;exitX=0.5;exitY=1;exitDx=0;exitDy=0;entryX=0.5;entryY=0;entryDx=0;entryDy=0;" parent="1" source="Lhvy_onTUj4dt_1nR8uf-19" target="Lhvy_onTUj4dt_1nR8uf-20" edge="1">
          <mxGeometry relative="1" as="geometry" />
        </mxCell>
        <mxCell id="Lhvy_onTUj4dt_1nR8uf-19" value="vblank-&gt;last = last" style="text;whiteSpace=wrap;html=1;" parent="1" vertex="1">
          <mxGeometry x="645" y="320" width="110" height="30" as="geometry" />
        </mxCell>
        <mxCell id="Lhvy_onTUj4dt_1nR8uf-20" value="vblank-&amp;gt;time = t_vblank" style="text;whiteSpace=wrap;html=1;" parent="1" vertex="1">
          <mxGeometry x="630" y="360" width="140" height="30" as="geometry" />
        </mxCell>
        <mxCell id="Lhvy_onTUj4dt_1nR8uf-36" style="edgeStyle=orthogonalEdgeStyle;rounded=0;orthogonalLoop=1;jettySize=auto;html=1;entryX=0.5;entryY=0;entryDx=0;entryDy=0;" parent="1" source="Lhvy_onTUj4dt_1nR8uf-22" target="Lhvy_onTUj4dt_1nR8uf-5" edge="1">
          <mxGeometry relative="1" as="geometry">
            <Array as="points">
              <mxPoint x="510" y="190" />
              <mxPoint x="390" y="190" />
            </Array>
          </mxGeometry>
        </mxCell>
        <mxCell id="Lhvy_onTUj4dt_1nR8uf-22" value="drm_vblank_get" style="text;whiteSpace=wrap;html=1;" parent="1" vertex="1">
          <mxGeometry x="461" y="70" width="100" height="30" as="geometry" />
        </mxCell>
        <mxCell id="IefzmPHaQlymBjuVDhgg-8" value="" style="edgeStyle=orthogonalEdgeStyle;rounded=0;orthogonalLoop=1;jettySize=auto;html=1;" parent="1" source="Lhvy_onTUj4dt_1nR8uf-39" target="IefzmPHaQlymBjuVDhgg-7" edge="1">
          <mxGeometry relative="1" as="geometry" />
        </mxCell>
        <mxCell id="IefzmPHaQlymBjuVDhgg-10" style="edgeStyle=orthogonalEdgeStyle;rounded=0;orthogonalLoop=1;jettySize=auto;html=1;exitX=1;exitY=0.5;exitDx=0;exitDy=0;entryX=0;entryY=0.5;entryDx=0;entryDy=0;" parent="1" source="Lhvy_onTUj4dt_1nR8uf-39" target="IefzmPHaQlymBjuVDhgg-9" edge="1">
          <mxGeometry relative="1" as="geometry" />
        </mxCell>
        <mxCell id="Lhvy_onTUj4dt_1nR8uf-39" value="drm_vblank_disable_and_save" style="text;whiteSpace=wrap;html=1;" parent="1" vertex="1">
          <mxGeometry x="328.5" y="-280" width="170" height="30" as="geometry" />
        </mxCell>
        <mxCell id="Lhvy_onTUj4dt_1nR8uf-44" value="&lt;span style=&quot;color: rgb(0, 0, 255); font-family: Helvetica; font-size: 12px; font-style: normal; font-variant-ligatures: normal; font-variant-caps: normal; font-weight: 400; letter-spacing: normal; orphans: 2; text-align: center; text-indent: 0px; text-transform: none; widows: 2; word-spacing: 0px; -webkit-text-stroke-width: 0px; white-space: normal; background-color: rgb(251, 251, 251); text-decoration-thickness: initial; text-decoration-style: initial; text-decoration-color: initial; display: inline !important; float: none;&quot;&gt;vblank-&amp;gt;inmodeset = 0;&lt;/span&gt;" style="text;whiteSpace=wrap;html=1;" parent="1" vertex="1">
          <mxGeometry x="185" y="135" width="130" height="30" as="geometry" />
        </mxCell>
        <mxCell id="Lhvy_onTUj4dt_1nR8uf-60" style="edgeStyle=orthogonalEdgeStyle;rounded=0;orthogonalLoop=1;jettySize=auto;html=1;exitX=0.5;exitY=1;exitDx=0;exitDy=0;" parent="1" source="Lhvy_onTUj4dt_1nR8uf-46" target="Lhvy_onTUj4dt_1nR8uf-51" edge="1">
          <mxGeometry relative="1" as="geometry">
            <Array as="points">
              <mxPoint x="363" y="570" />
              <mxPoint x="240" y="570" />
            </Array>
          </mxGeometry>
        </mxCell>
        <mxCell id="Lhvy_onTUj4dt_1nR8uf-61" style="edgeStyle=orthogonalEdgeStyle;rounded=0;orthogonalLoop=1;jettySize=auto;html=1;exitX=0.5;exitY=1;exitDx=0;exitDy=0;entryX=0.5;entryY=0;entryDx=0;entryDy=0;" parent="1" source="Lhvy_onTUj4dt_1nR8uf-46" target="Lhvy_onTUj4dt_1nR8uf-52" edge="1">
          <mxGeometry relative="1" as="geometry" />
        </mxCell>
        <mxCell id="Lhvy_onTUj4dt_1nR8uf-62" style="edgeStyle=orthogonalEdgeStyle;rounded=0;orthogonalLoop=1;jettySize=auto;html=1;exitX=0.5;exitY=1;exitDx=0;exitDy=0;entryX=0.5;entryY=0;entryDx=0;entryDy=0;" parent="1" source="Lhvy_onTUj4dt_1nR8uf-46" target="Lhvy_onTUj4dt_1nR8uf-53" edge="1">
          <mxGeometry relative="1" as="geometry" />
        </mxCell>
        <mxCell id="Lhvy_onTUj4dt_1nR8uf-46" value="drm_handle_vblank" style="text;whiteSpace=wrap;html=1;" parent="1" vertex="1">
          <mxGeometry x="308" y="520" width="110" height="30" as="geometry" />
        </mxCell>
        <mxCell id="Lhvy_onTUj4dt_1nR8uf-59" style="edgeStyle=orthogonalEdgeStyle;rounded=0;orthogonalLoop=1;jettySize=auto;html=1;exitX=0.5;exitY=1;exitDx=0;exitDy=0;entryX=0.5;entryY=0;entryDx=0;entryDy=0;" parent="1" source="Lhvy_onTUj4dt_1nR8uf-47" target="Lhvy_onTUj4dt_1nR8uf-46" edge="1">
          <mxGeometry relative="1" as="geometry" />
        </mxCell>
        <mxCell id="Lhvy_onTUj4dt_1nR8uf-47" value="drm_crtc_handle_vblank" style="text;whiteSpace=wrap;html=1;" parent="1" vertex="1">
          <mxGeometry x="293" y="480" width="140" height="30" as="geometry" />
        </mxCell>
        <mxCell id="Lhvy_onTUj4dt_1nR8uf-48" value="硬件vblank到来后，在中断函数中调用：" style="text;whiteSpace=wrap;html=1;" parent="1" vertex="1">
          <mxGeometry x="30" y="480" width="220" height="30" as="geometry" />
        </mxCell>
        <mxCell id="Lhvy_onTUj4dt_1nR8uf-49" value="vblank-&amp;gt;enabled = false" style="text;whiteSpace=wrap;html=1;fontColor=#0000FF;" parent="1" vertex="1">
          <mxGeometry x="323.5" y="-190" width="137.5" height="30" as="geometry" />
        </mxCell>
        <mxCell id="a2wnVY5ExP5OAnXWWHzz-3" style="edgeStyle=orthogonalEdgeStyle;rounded=0;orthogonalLoop=1;jettySize=auto;html=1;exitX=0.5;exitY=1;exitDx=0;exitDy=0;entryX=0.5;entryY=0;entryDx=0;entryDy=0;" parent="1" source="Lhvy_onTUj4dt_1nR8uf-51" target="a2wnVY5ExP5OAnXWWHzz-1" edge="1">
          <mxGeometry relative="1" as="geometry" />
        </mxCell>
        <mxCell id="Lhvy_onTUj4dt_1nR8uf-51" value="drm_update_vblank_count" style="text;whiteSpace=wrap;html=1;" parent="1" vertex="1">
          <mxGeometry x="160" y="587.5" width="155" height="25" as="geometry" />
        </mxCell>
        <mxCell id="Cp54ddVQhLDNcRKYRIW8-3" style="edgeStyle=orthogonalEdgeStyle;rounded=0;orthogonalLoop=1;jettySize=auto;html=1;exitX=0.5;exitY=1;exitDx=0;exitDy=0;entryX=0.5;entryY=0;entryDx=0;entryDy=0;" parent="1" source="Lhvy_onTUj4dt_1nR8uf-52" target="Lhvy_onTUj4dt_1nR8uf-54" edge="1">
          <mxGeometry relative="1" as="geometry" />
        </mxCell>
        <mxCell id="Lhvy_onTUj4dt_1nR8uf-52" value="drm_handle_vblank_events" style="text;whiteSpace=wrap;html=1;" parent="1" vertex="1">
          <mxGeometry x="321" y="587.5" width="150" height="30" as="geometry" />
        </mxCell>
        <mxCell id="Lhvy_onTUj4dt_1nR8uf-64" style="edgeStyle=orthogonalEdgeStyle;rounded=0;orthogonalLoop=1;jettySize=auto;html=1;exitX=0.5;exitY=1;exitDx=0;exitDy=0;entryX=0.5;entryY=0;entryDx=0;entryDy=0;" parent="1" source="Lhvy_onTUj4dt_1nR8uf-53" target="Lhvy_onTUj4dt_1nR8uf-55" edge="1">
          <mxGeometry relative="1" as="geometry" />
        </mxCell>
        <mxCell id="Lhvy_onTUj4dt_1nR8uf-53" value="drm_handle_vblank_works" style="text;whiteSpace=wrap;html=1;" parent="1" vertex="1">
          <mxGeometry x="488" y="590" width="150" height="30" as="geometry" />
        </mxCell>
        <mxCell id="Cp54ddVQhLDNcRKYRIW8-5" style="edgeStyle=orthogonalEdgeStyle;rounded=0;orthogonalLoop=1;jettySize=auto;html=1;exitX=0.5;exitY=1;exitDx=0;exitDy=0;entryX=0.5;entryY=0;entryDx=0;entryDy=0;" parent="1" source="Lhvy_onTUj4dt_1nR8uf-54" target="Cp54ddVQhLDNcRKYRIW8-4" edge="1">
          <mxGeometry relative="1" as="geometry" />
        </mxCell>
        <mxCell id="Lhvy_onTUj4dt_1nR8uf-54" value="send_vblank_event" style="text;whiteSpace=wrap;html=1;" parent="1" vertex="1">
          <mxGeometry x="341" y="630" width="110" height="30" as="geometry" />
        </mxCell>
        <mxCell id="Lhvy_onTUj4dt_1nR8uf-55" value="kthread_queue_work" style="text;whiteSpace=wrap;html=1;" parent="1" vertex="1">
          <mxGeometry x="503" y="630" width="120" height="30" as="geometry" />
        </mxCell>
        <mxCell id="IefzmPHaQlymBjuVDhgg-4" value="" style="edgeStyle=orthogonalEdgeStyle;rounded=0;orthogonalLoop=1;jettySize=auto;html=1;" parent="1" source="Lhvy_onTUj4dt_1nR8uf-58" target="IefzmPHaQlymBjuVDhgg-3" edge="1">
          <mxGeometry relative="1" as="geometry" />
        </mxCell>
        <mxCell id="Lhvy_onTUj4dt_1nR8uf-58" value="drm_vblank_worker_init" style="text;whiteSpace=wrap;html=1;" parent="1" vertex="1">
          <mxGeometry x="141.5" y="-650" width="140" height="30" as="geometry" />
        </mxCell>
        <mxCell id="Cp54ddVQhLDNcRKYRIW8-7" style="edgeStyle=orthogonalEdgeStyle;rounded=0;orthogonalLoop=1;jettySize=auto;html=1;exitX=0.5;exitY=1;exitDx=0;exitDy=0;entryX=0.5;entryY=0;entryDx=0;entryDy=0;" parent="1" source="Cp54ddVQhLDNcRKYRIW8-4" target="Cp54ddVQhLDNcRKYRIW8-6" edge="1">
          <mxGeometry relative="1" as="geometry" />
        </mxCell>
        <mxCell id="Cp54ddVQhLDNcRKYRIW8-49" style="edgeStyle=orthogonalEdgeStyle;rounded=0;orthogonalLoop=1;jettySize=auto;html=1;exitX=0;exitY=0.5;exitDx=0;exitDy=0;entryX=1;entryY=0.5;entryDx=0;entryDy=0;" parent="1" source="Cp54ddVQhLDNcRKYRIW8-4" target="Cp54ddVQhLDNcRKYRIW8-48" edge="1">
          <mxGeometry relative="1" as="geometry" />
        </mxCell>
        <mxCell id="Cp54ddVQhLDNcRKYRIW8-52" value="发送event" style="edgeLabel;html=1;align=center;verticalAlign=middle;resizable=0;points=[];" parent="Cp54ddVQhLDNcRKYRIW8-49" vertex="1" connectable="0">
          <mxGeometry x="-0.0512" y="-2" relative="1" as="geometry">
            <mxPoint as="offset" />
          </mxGeometry>
        </mxCell>
        <mxCell id="Cp54ddVQhLDNcRKYRIW8-4" value="drm_send_event_timestamp_locked" style="text;whiteSpace=wrap;html=1;" parent="1" vertex="1">
          <mxGeometry x="296.5" y="670" width="199" height="30" as="geometry" />
        </mxCell>
        <mxCell id="Cp54ddVQhLDNcRKYRIW8-9" style="edgeStyle=orthogonalEdgeStyle;rounded=0;orthogonalLoop=1;jettySize=auto;html=1;exitX=0.5;exitY=1;exitDx=0;exitDy=0;entryX=0.5;entryY=0;entryDx=0;entryDy=0;" parent="1" source="Cp54ddVQhLDNcRKYRIW8-6" target="Cp54ddVQhLDNcRKYRIW8-8" edge="1">
          <mxGeometry relative="1" as="geometry" />
        </mxCell>
        <mxCell id="Cp54ddVQhLDNcRKYRIW8-6" value="drm_send_event_helper" style="text;whiteSpace=wrap;html=1;" parent="1" vertex="1">
          <mxGeometry x="326" y="710" width="140" height="30" as="geometry" />
        </mxCell>
        <mxCell id="Cp54ddVQhLDNcRKYRIW8-54" style="edgeStyle=orthogonalEdgeStyle;rounded=0;orthogonalLoop=1;jettySize=auto;html=1;exitX=1;exitY=0.5;exitDx=0;exitDy=0;entryX=0;entryY=0.5;entryDx=0;entryDy=0;" parent="1" source="Cp54ddVQhLDNcRKYRIW8-8" target="Cp54ddVQhLDNcRKYRIW8-53" edge="1">
          <mxGeometry relative="1" as="geometry" />
        </mxCell>
        <mxCell id="Cp54ddVQhLDNcRKYRIW8-8" value="&lt;font color=&quot;#ff3333&quot;&gt;complete_all(e-&amp;gt;completion);&lt;/font&gt;" style="text;whiteSpace=wrap;html=1;" parent="1" vertex="1">
          <mxGeometry x="315" y="750" width="160" height="30" as="geometry" />
        </mxCell>
        <mxCell id="Cp54ddVQhLDNcRKYRIW8-12" style="edgeStyle=orthogonalEdgeStyle;rounded=0;orthogonalLoop=1;jettySize=auto;html=1;exitX=0.5;exitY=1;exitDx=0;exitDy=0;entryX=0.5;entryY=0;entryDx=0;entryDy=0;" parent="1" source="Cp54ddVQhLDNcRKYRIW8-10" target="HEfscEinG6NMkhZ_wRlj-4" edge="1">
          <mxGeometry relative="1" as="geometry" />
        </mxCell>
        <mxCell id="Cp54ddVQhLDNcRKYRIW8-10" value="&lt;font color=&quot;#ff3333&quot;&gt;crtc_helper_funcs-&amp;gt;atomic_enable&lt;/font&gt;" style="text;html=1;align=center;verticalAlign=middle;whiteSpace=wrap;rounded=0;" parent="1" vertex="1">
          <mxGeometry x="217.5" y="10" width="205" height="30" as="geometry" />
        </mxCell>
        <mxCell id="Cp54ddVQhLDNcRKYRIW8-11" value="&lt;font color=&quot;#b3b3b3&quot; style=&quot;font-size: 11px;&quot;&gt;使能vblank中断&lt;/font&gt;" style="text;html=1;align=center;verticalAlign=middle;whiteSpace=wrap;rounded=0;" parent="1" vertex="1">
          <mxGeometry x="95" y="320" width="90" height="30" as="geometry" />
        </mxCell>
        <mxCell id="Cp54ddVQhLDNcRKYRIW8-18" style="edgeStyle=orthogonalEdgeStyle;rounded=0;orthogonalLoop=1;jettySize=auto;html=1;exitX=1;exitY=0.5;exitDx=0;exitDy=0;entryX=0;entryY=0.5;entryDx=0;entryDy=0;strokeColor=#00CC00;" parent="1" source="Cp54ddVQhLDNcRKYRIW8-13" target="Cp54ddVQhLDNcRKYRIW8-10" edge="1">
          <mxGeometry relative="1" as="geometry" />
        </mxCell>
        <mxCell id="Cp54ddVQhLDNcRKYRIW8-33" style="edgeStyle=orthogonalEdgeStyle;rounded=0;orthogonalLoop=1;jettySize=auto;html=1;exitX=0.5;exitY=1;exitDx=0;exitDy=0;entryX=0.5;entryY=0;entryDx=0;entryDy=0;" parent="1" source="Cp54ddVQhLDNcRKYRIW8-13" target="Cp54ddVQhLDNcRKYRIW8-32" edge="1">
          <mxGeometry relative="1" as="geometry" />
        </mxCell>
        <mxCell id="Cp54ddVQhLDNcRKYRIW8-13" value="&lt;font color=&quot;#ff3333&quot;&gt;crtc_helper_funcs-&amp;gt;atomic_flush&lt;/font&gt;" style="text;html=1;align=center;verticalAlign=middle;whiteSpace=wrap;rounded=0;" parent="1" vertex="1">
          <mxGeometry x="-205" y="10" width="205" height="30" as="geometry" />
        </mxCell>
        <mxCell id="Cp54ddVQhLDNcRKYRIW8-27" style="edgeStyle=orthogonalEdgeStyle;rounded=0;orthogonalLoop=1;jettySize=auto;html=1;exitX=0.5;exitY=1;exitDx=0;exitDy=0;entryX=0.5;entryY=0;entryDx=0;entryDy=0;" parent="1" source="Cp54ddVQhLDNcRKYRIW8-14" target="Cp54ddVQhLDNcRKYRIW8-26" edge="1">
          <mxGeometry relative="1" as="geometry" />
        </mxCell>
        <mxCell id="Cp54ddVQhLDNcRKYRIW8-14" value="drm_crtc_arm_vblank_event" style="text;whiteSpace=wrap;html=1;" parent="1" vertex="1">
          <mxGeometry x="-388.12" y="140" width="161.25" height="30" as="geometry" />
        </mxCell>
        <mxCell id="Cp54ddVQhLDNcRKYRIW8-15" value="&lt;font style=&quot;font-size: 11px;&quot; color=&quot;#b3b3b3&quot;&gt;在函数最后调用&lt;/font&gt;" style="text;html=1;align=center;verticalAlign=middle;whiteSpace=wrap;rounded=0;" parent="1" vertex="1">
          <mxGeometry x="217.5" y="40" width="110" height="30" as="geometry" />
        </mxCell>
        <mxCell id="Cp54ddVQhLDNcRKYRIW8-24" value="" style="curved=0;endArrow=classic;html=1;rounded=1;exitX=0.5;exitY=1;exitDx=0;exitDy=0;entryX=0.5;entryY=0;entryDx=0;entryDy=0;fontColor=#FF0000;labelBackgroundColor=#FFFFFF;labelBorderColor=none;textShadow=0;strokeColor=#00CC00;" parent="1" source="Lhvy_onTUj4dt_1nR8uf-2" target="Lhvy_onTUj4dt_1nR8uf-47" edge="1">
          <mxGeometry width="50" height="50" relative="1" as="geometry">
            <mxPoint x="350" y="330" as="sourcePoint" />
            <mxPoint x="400" y="280" as="targetPoint" />
            <Array as="points">
              <mxPoint x="270" y="420" />
              <mxPoint x="290" y="430" />
              <mxPoint x="310" y="450" />
            </Array>
          </mxGeometry>
        </mxCell>
        <mxCell id="Cp54ddVQhLDNcRKYRIW8-26" value="list_add_tail(&amp;e-&gt;base.link, &amp;dev-&gt;vblank_event_list)" style="text;whiteSpace=wrap;html=1;" parent="1" vertex="1">
          <mxGeometry x="-452.49" y="190" width="290" height="30" as="geometry" />
        </mxCell>
        <mxCell id="Cp54ddVQhLDNcRKYRIW8-28" value="&lt;font color=&quot;#b3b3b3&quot; style=&quot;font-size: 11px;&quot;&gt;vblank事件加入链表，等待中断处理&lt;/font&gt;" style="text;html=1;align=center;verticalAlign=middle;whiteSpace=wrap;rounded=0;" parent="1" vertex="1">
          <mxGeometry x="-510" y="170" width="220" height="30" as="geometry" />
        </mxCell>
        <mxCell id="Cp54ddVQhLDNcRKYRIW8-31" style="edgeStyle=orthogonalEdgeStyle;rounded=0;orthogonalLoop=1;jettySize=auto;html=1;exitX=0.5;exitY=1;exitDx=0;exitDy=0;entryX=0;entryY=0.5;entryDx=0;entryDy=0;" parent="1" source="Cp54ddVQhLDNcRKYRIW8-29" target="Lhvy_onTUj4dt_1nR8uf-54" edge="1">
          <mxGeometry relative="1" as="geometry" />
        </mxCell>
        <mxCell id="Cp54ddVQhLDNcRKYRIW8-29" value="drm_crtc_send_vblank_event" style="text;whiteSpace=wrap;html=1;" parent="1" vertex="1">
          <mxGeometry x="-84" y="140" width="170" height="25" as="geometry" />
        </mxCell>
        <mxCell id="Cp54ddVQhLDNcRKYRIW8-34" style="edgeStyle=orthogonalEdgeStyle;rounded=0;orthogonalLoop=1;jettySize=auto;html=1;exitX=0.5;exitY=1;exitDx=0;exitDy=0;entryX=0.5;entryY=0;entryDx=0;entryDy=0;" parent="1" source="Cp54ddVQhLDNcRKYRIW8-32" target="Cp54ddVQhLDNcRKYRIW8-14" edge="1">
          <mxGeometry relative="1" as="geometry" />
        </mxCell>
        <mxCell id="Cp54ddVQhLDNcRKYRIW8-37" value="==0" style="edgeLabel;html=1;align=center;verticalAlign=middle;resizable=0;points=[];" parent="Cp54ddVQhLDNcRKYRIW8-34" vertex="1" connectable="0">
          <mxGeometry x="-0.0403" relative="1" as="geometry">
            <mxPoint as="offset" />
          </mxGeometry>
        </mxCell>
        <mxCell id="Cp54ddVQhLDNcRKYRIW8-40" style="edgeStyle=orthogonalEdgeStyle;rounded=0;orthogonalLoop=1;jettySize=auto;html=1;exitX=0.5;exitY=1;exitDx=0;exitDy=0;entryX=0.5;entryY=0;entryDx=0;entryDy=0;" parent="1" source="Cp54ddVQhLDNcRKYRIW8-32" target="Cp54ddVQhLDNcRKYRIW8-29" edge="1">
          <mxGeometry relative="1" as="geometry" />
        </mxCell>
        <mxCell id="Cp54ddVQhLDNcRKYRIW8-41" value="!=0" style="edgeLabel;html=1;align=center;verticalAlign=middle;resizable=0;points=[];" parent="Cp54ddVQhLDNcRKYRIW8-40" vertex="1" connectable="0">
          <mxGeometry x="-0.0556" y="4" relative="1" as="geometry">
            <mxPoint as="offset" />
          </mxGeometry>
        </mxCell>
        <mxCell id="Cp54ddVQhLDNcRKYRIW8-32" value="drm_crtc_vblank_get" style="text;whiteSpace=wrap;html=1;" parent="1" vertex="1">
          <mxGeometry x="-162.49" y="60" width="120" height="30" as="geometry" />
        </mxCell>
        <mxCell id="Cp54ddVQhLDNcRKYRIW8-42" value="vblank-&amp;gt;enabled = true" style="text;whiteSpace=wrap;html=1;fontColor=#0000FF;" parent="1" vertex="1">
          <mxGeometry x="466" y="220" width="134" height="30" as="geometry" />
        </mxCell>
        <mxCell id="Cp54ddVQhLDNcRKYRIW8-43" value="&lt;font color=&quot;#0000ff&quot;&gt;atomic_dec(&amp;amp;vblank-&amp;gt;refcount)&lt;/font&gt;" style="text;whiteSpace=wrap;html=1;" parent="1" vertex="1">
          <mxGeometry x="147.5" y="110" width="180" height="30" as="geometry" />
        </mxCell>
        <mxCell id="Cp54ddVQhLDNcRKYRIW8-44" value="&lt;span style=&quot;color: rgb(0, 0, 255); font-family: Helvetica; font-size: 12px; font-style: normal; font-variant-ligatures: normal; font-variant-caps: normal; font-weight: 400; letter-spacing: normal; orphans: 2; text-align: left; text-indent: 0px; text-transform: none; widows: 2; word-spacing: 0px; -webkit-text-stroke-width: 0px; white-space: normal; background-color: rgb(251, 251, 251); text-decoration-thickness: initial; text-decoration-style: initial; text-decoration-color: initial; display: inline !important; float: none;&quot;&gt;atomic_inc(&amp;amp;vblank-&amp;gt;refcount)&lt;/span&gt;" style="text;whiteSpace=wrap;html=1;" parent="1" vertex="1">
          <mxGeometry x="306.5" y="-237.5" width="167" height="30" as="geometry" />
        </mxCell>
        <mxCell id="Cp54ddVQhLDNcRKYRIW8-47" style="edgeStyle=orthogonalEdgeStyle;rounded=0;orthogonalLoop=1;jettySize=auto;html=1;exitX=1;exitY=0.5;exitDx=0;exitDy=0;entryX=0;entryY=0.5;entryDx=0;entryDy=0;" parent="1" source="Cp54ddVQhLDNcRKYRIW8-46" target="HEfscEinG6NMkhZ_wRlj-1" edge="1">
          <mxGeometry relative="1" as="geometry" />
        </mxCell>
        <mxCell id="Cp54ddVQhLDNcRKYRIW8-46" value="&lt;font color=&quot;#ff3333&quot;&gt;crtc_helper_funcs-&amp;gt;atomic_disable&lt;/font&gt;" style="text;html=1;align=center;verticalAlign=middle;whiteSpace=wrap;rounded=0;" parent="1" vertex="1">
          <mxGeometry x="-204.99" y="-220" width="205" height="30" as="geometry" />
        </mxCell>
        <mxCell id="Cp54ddVQhLDNcRKYRIW8-48" value="while (1) {&lt;br&gt;select(fd + 1, &amp;amp;fds, NULL, NULL, &amp;amp;v);&lt;br&gt;read(fd, buffer, sizeof buffer);&lt;div&gt;}&lt;/div&gt;" style="text;html=1;align=left;verticalAlign=middle;whiteSpace=wrap;rounded=0;" parent="1" vertex="1">
          <mxGeometry x="-340" y="645" width="212.49" height="80" as="geometry" />
        </mxCell>
        <mxCell id="Cp54ddVQhLDNcRKYRIW8-50" value="" style="curved=1;endArrow=classic;html=1;rounded=0;exitX=0.5;exitY=1;exitDx=0;exitDy=0;entryX=0;entryY=0.5;entryDx=0;entryDy=0;" parent="1" source="Cp54ddVQhLDNcRKYRIW8-48" target="Cp54ddVQhLDNcRKYRIW8-48" edge="1">
          <mxGeometry width="50" height="50" relative="1" as="geometry">
            <mxPoint x="-240" y="790" as="sourcePoint" />
            <mxPoint x="-190" y="740" as="targetPoint" />
            <Array as="points">
              <mxPoint x="-250" y="780" />
              <mxPoint x="-350" y="760" />
              <mxPoint x="-400" y="700" />
            </Array>
          </mxGeometry>
        </mxCell>
        <mxCell id="Cp54ddVQhLDNcRKYRIW8-51" value="&lt;font color=&quot;#b3b3b3&quot; style=&quot;font-size: 11px;&quot;&gt;用户层polling page_flip event&lt;/font&gt;" style="text;html=1;align=center;verticalAlign=middle;whiteSpace=wrap;rounded=0;" parent="1" vertex="1">
          <mxGeometry x="-396.87" y="617.5" width="170" height="30" as="geometry" />
        </mxCell>
        <mxCell id="Cp54ddVQhLDNcRKYRIW8-53" value="flip_done" style="text;whiteSpace=wrap;html=1;fontColor=#0000FF;" parent="1" vertex="1">
          <mxGeometry x="503" y="750" width="55" height="30" as="geometry" />
        </mxCell>
        <mxCell id="Cp54ddVQhLDNcRKYRIW8-61" style="edgeStyle=orthogonalEdgeStyle;rounded=0;orthogonalLoop=1;jettySize=auto;html=1;exitX=0.5;exitY=1;exitDx=0;exitDy=0;entryX=0.5;entryY=0;entryDx=0;entryDy=0;" parent="1" source="Cp54ddVQhLDNcRKYRIW8-55" target="Cp54ddVQhLDNcRKYRIW8-64" edge="1">
          <mxGeometry relative="1" as="geometry">
            <mxPoint x="-610" as="targetPoint" />
          </mxGeometry>
        </mxCell>
        <mxCell id="Cp54ddVQhLDNcRKYRIW8-55" value="切显示的framebuffer地址" style="ellipse;whiteSpace=wrap;html=1;" parent="1" vertex="1">
          <mxGeometry x="-680" y="-115" width="140" height="80" as="geometry" />
        </mxCell>
        <mxCell id="Cp54ddVQhLDNcRKYRIW8-56" value="plane_helper_funcs-&amp;gt;atomic_update" style="text;html=1;align=center;verticalAlign=middle;whiteSpace=wrap;rounded=0;" parent="1" vertex="1">
          <mxGeometry x="-900" y="-90" width="220" height="30" as="geometry" />
        </mxCell>
        <mxCell id="Cp54ddVQhLDNcRKYRIW8-59" value="" style="edgeStyle=orthogonalEdgeStyle;rounded=0;orthogonalLoop=1;jettySize=auto;html=1;" parent="1" source="Cp54ddVQhLDNcRKYRIW8-57" target="Cp54ddVQhLDNcRKYRIW8-55" edge="1">
          <mxGeometry relative="1" as="geometry" />
        </mxCell>
        <mxCell id="Cp54ddVQhLDNcRKYRIW8-57" value="禁止CRTC, vblank中断..." style="ellipse;whiteSpace=wrap;html=1;" parent="1" vertex="1">
          <mxGeometry x="-680" y="-230" width="140" height="80" as="geometry" />
        </mxCell>
        <mxCell id="Cp54ddVQhLDNcRKYRIW8-58" value="&lt;span style=&quot;font-family: Helvetica; font-size: 12px; font-style: normal; font-variant-ligatures: normal; font-variant-caps: normal; font-weight: 400; letter-spacing: normal; orphans: 2; text-align: center; text-indent: 0px; text-transform: none; widows: 2; word-spacing: 0px; -webkit-text-stroke-width: 0px; white-space: normal; background-color: rgb(251, 251, 251); text-decoration-thickness: initial; text-decoration-style: initial; text-decoration-color: initial; float: none; display: inline !important;&quot;&gt;crtc_helper_funcs-&amp;gt;atomic_disable&lt;/span&gt;" style="text;whiteSpace=wrap;html=1;" parent="1" vertex="1">
          <mxGeometry x="-890" y="-200" width="190" height="30" as="geometry" />
        </mxCell>
        <mxCell id="Cp54ddVQhLDNcRKYRIW8-63" value="crtc_helper_funcs-&amp;gt;atomic_enable" style="text;html=1;align=center;verticalAlign=middle;whiteSpace=wrap;rounded=0;" parent="1" vertex="1">
          <mxGeometry x="-897.5" y="35" width="205" height="30" as="geometry" />
        </mxCell>
        <mxCell id="Cp54ddVQhLDNcRKYRIW8-69" style="edgeStyle=orthogonalEdgeStyle;rounded=0;orthogonalLoop=1;jettySize=auto;html=1;exitX=0.5;exitY=1;exitDx=0;exitDy=0;entryX=0.5;entryY=0;entryDx=0;entryDy=0;" parent="1" source="Cp54ddVQhLDNcRKYRIW8-64" target="Cp54ddVQhLDNcRKYRIW8-68" edge="1">
          <mxGeometry relative="1" as="geometry" />
        </mxCell>
        <mxCell id="Cp54ddVQhLDNcRKYRIW8-70" value="进入vblank中断" style="edgeLabel;html=1;align=center;verticalAlign=middle;resizable=0;points=[];" parent="Cp54ddVQhLDNcRKYRIW8-69" vertex="1" connectable="0">
          <mxGeometry x="-0.1972" y="-2" relative="1" as="geometry">
            <mxPoint as="offset" />
          </mxGeometry>
        </mxCell>
        <mxCell id="Cp54ddVQhLDNcRKYRIW8-64" value="使能CRTC, vblank中断" style="ellipse;whiteSpace=wrap;html=1;" parent="1" vertex="1">
          <mxGeometry x="-680" y="10" width="140" height="80" as="geometry" />
        </mxCell>
        <mxCell id="Cp54ddVQhLDNcRKYRIW8-78" value="" style="edgeStyle=orthogonalEdgeStyle;rounded=0;orthogonalLoop=1;jettySize=auto;html=1;" parent="1" source="Cp54ddVQhLDNcRKYRIW8-68" target="Cp54ddVQhLDNcRKYRIW8-77" edge="1">
          <mxGeometry relative="1" as="geometry" />
        </mxCell>
        <mxCell id="Cp54ddVQhLDNcRKYRIW8-79" value="发送page flip event" style="edgeLabel;html=1;align=center;verticalAlign=middle;resizable=0;points=[];" parent="Cp54ddVQhLDNcRKYRIW8-78" vertex="1" connectable="0">
          <mxGeometry x="0.0577" y="1" relative="1" as="geometry">
            <mxPoint as="offset" />
          </mxGeometry>
        </mxCell>
        <mxCell id="Cp54ddVQhLDNcRKYRIW8-68" value="irq handler&lt;div&gt;drm_crtc_handle_vblank()&lt;/div&gt;&lt;div&gt;drm_crtc_send_vblank_event()&lt;/div&gt;" style="ellipse;whiteSpace=wrap;html=1;" parent="1" vertex="1">
          <mxGeometry x="-700" y="250" width="180" height="100" as="geometry" />
        </mxCell>
        <mxCell id="Cp54ddVQhLDNcRKYRIW8-86" style="edgeStyle=orthogonalEdgeStyle;rounded=0;orthogonalLoop=1;jettySize=auto;html=1;exitX=0.5;exitY=1;exitDx=0;exitDy=0;entryX=0.5;entryY=0;entryDx=0;entryDy=0;" parent="1" source="Cp54ddVQhLDNcRKYRIW8-71" target="Cp54ddVQhLDNcRKYRIW8-84" edge="1">
          <mxGeometry relative="1" as="geometry" />
        </mxCell>
        <mxCell id="Cp54ddVQhLDNcRKYRIW8-71" value="绘制mmap的framebuffer0" style="ellipse;whiteSpace=wrap;html=1;" parent="1" vertex="1">
          <mxGeometry x="-1050" y="-400" width="140" height="80" as="geometry" />
        </mxCell>
        <mxCell id="Cp54ddVQhLDNcRKYRIW8-72" value="进入while loop等待page flip event" style="ellipse;whiteSpace=wrap;html=1;" parent="1" vertex="1">
          <mxGeometry x="-1050" y="-90" width="140" height="80" as="geometry" />
        </mxCell>
        <mxCell id="Cp54ddVQhLDNcRKYRIW8-74" value="Userspace" style="text;html=1;align=center;verticalAlign=middle;whiteSpace=wrap;rounded=0;" parent="1" vertex="1">
          <mxGeometry x="-1010" y="-584" width="60" height="30" as="geometry" />
        </mxCell>
        <mxCell id="Cp54ddVQhLDNcRKYRIW8-76" value="Kernel space" style="text;html=1;align=center;verticalAlign=middle;whiteSpace=wrap;rounded=0;" parent="1" vertex="1">
          <mxGeometry x="-640" y="-460" width="60" height="30" as="geometry" />
        </mxCell>
        <mxCell id="Cp54ddVQhLDNcRKYRIW8-77" value="进入event handler" style="ellipse;whiteSpace=wrap;html=1;" parent="1" vertex="1">
          <mxGeometry x="-1050" y="260" width="140" height="80" as="geometry" />
        </mxCell>
        <mxCell id="Cp54ddVQhLDNcRKYRIW8-82" value="绘制double buffer的另一块buffer" style="text;html=1;align=center;verticalAlign=middle;whiteSpace=wrap;rounded=0;" parent="1" vertex="1">
          <mxGeometry x="-1190" y="10" width="100" height="30" as="geometry" />
        </mxCell>
        <mxCell id="Cp54ddVQhLDNcRKYRIW8-85" style="edgeStyle=orthogonalEdgeStyle;rounded=0;orthogonalLoop=1;jettySize=auto;html=1;entryX=0.5;entryY=0;entryDx=0;entryDy=0;" parent="1" source="Cp54ddVQhLDNcRKYRIW8-84" target="Cp54ddVQhLDNcRKYRIW8-57" edge="1">
          <mxGeometry relative="1" as="geometry" />
        </mxCell>
        <mxCell id="Cp54ddVQhLDNcRKYRIW8-87" style="edgeStyle=orthogonalEdgeStyle;rounded=0;orthogonalLoop=1;jettySize=auto;html=1;exitX=0.5;exitY=1;exitDx=0;exitDy=0;entryX=0.5;entryY=0;entryDx=0;entryDy=0;" parent="1" source="Cp54ddVQhLDNcRKYRIW8-84" target="Cp54ddVQhLDNcRKYRIW8-72" edge="1">
          <mxGeometry relative="1" as="geometry" />
        </mxCell>
        <mxCell id="Cp54ddVQhLDNcRKYRIW8-84" value="atomic commit" style="ellipse;whiteSpace=wrap;html=1;" parent="1" vertex="1">
          <mxGeometry x="-1050" y="-290" width="140" height="80" as="geometry" />
        </mxCell>
        <mxCell id="a2wnVY5ExP5OAnXWWHzz-5" style="edgeStyle=orthogonalEdgeStyle;rounded=0;orthogonalLoop=1;jettySize=auto;html=1;exitX=0.5;exitY=1;exitDx=0;exitDy=0;entryX=0.5;entryY=0;entryDx=0;entryDy=0;" parent="1" source="a2wnVY5ExP5OAnXWWHzz-1" target="a2wnVY5ExP5OAnXWWHzz-4" edge="1">
          <mxGeometry relative="1" as="geometry" />
        </mxCell>
        <mxCell id="a2wnVY5ExP5OAnXWWHzz-1" value="store_vblank" style="text;whiteSpace=wrap;html=1;" parent="1" vertex="1">
          <mxGeometry x="197.5" y="710" width="80" height="30" as="geometry" />
        </mxCell>
        <mxCell id="a2wnVY5ExP5OAnXWWHzz-4" value="atomic64_add(vblank_count_inc, &amp;amp;vblank-&amp;gt;count)" style="text;whiteSpace=wrap;html=1;fontColor=#0000FF;" parent="1" vertex="1">
          <mxGeometry x="102.5" y="800" width="270" height="30" as="geometry" />
        </mxCell>
        <mxCell id="IefzmPHaQlymBjuVDhgg-2" value="&lt;font color=&quot;#999999&quot; style=&quot;font-size: 10px;&quot;&gt;创建内核线程&lt;/font&gt;" style="text;html=1;align=center;verticalAlign=middle;whiteSpace=wrap;rounded=0;" parent="1" vertex="1">
          <mxGeometry x="102" y="-680" width="91" height="30" as="geometry" />
        </mxCell>
        <mxCell id="IefzmPHaQlymBjuVDhgg-3" value="kthread_create_worker" style="text;whiteSpace=wrap;html=1;" parent="1" vertex="1">
          <mxGeometry x="329" y="-650" width="130" height="30" as="geometry" />
        </mxCell>
        <mxCell id="IefzmPHaQlymBjuVDhgg-6" value="&lt;span style=&quot;color: rgb(0, 0, 255); font-family: Helvetica; font-size: 12px; font-style: normal; font-variant-ligatures: normal; font-variant-caps: normal; font-weight: 400; letter-spacing: normal; orphans: 2; text-align: center; text-indent: 0px; text-transform: none; widows: 2; word-spacing: 0px; -webkit-text-stroke-width: 0px; white-space: normal; background-color: rgb(251, 251, 251); text-decoration-thickness: initial; text-decoration-style: initial; text-decoration-color: initial; display: inline !important; float: none;&quot;&gt;vblank-&amp;gt;inmodeset = 1;&lt;/span&gt;" style="text;whiteSpace=wrap;html=1;" parent="1" vertex="1">
          <mxGeometry x="323" y="-212.5" width="130" height="30" as="geometry" />
        </mxCell>
        <mxCell id="IefzmPHaQlymBjuVDhgg-21" style="edgeStyle=orthogonalEdgeStyle;rounded=0;orthogonalLoop=1;jettySize=auto;html=1;exitX=1;exitY=0.5;exitDx=0;exitDy=0;entryX=0;entryY=0.5;entryDx=0;entryDy=0;" parent="1" source="IefzmPHaQlymBjuVDhgg-7" target="IefzmPHaQlymBjuVDhgg-15" edge="1">
          <mxGeometry relative="1" as="geometry" />
        </mxCell>
        <mxCell id="IefzmPHaQlymBjuVDhgg-27" style="edgeStyle=orthogonalEdgeStyle;rounded=0;orthogonalLoop=1;jettySize=auto;html=1;exitX=1;exitY=0.5;exitDx=0;exitDy=0;entryX=0;entryY=0.5;entryDx=0;entryDy=0;" parent="1" source="IefzmPHaQlymBjuVDhgg-7" target="IefzmPHaQlymBjuVDhgg-25" edge="1">
          <mxGeometry relative="1" as="geometry" />
        </mxCell>
        <mxCell id="IefzmPHaQlymBjuVDhgg-33" style="edgeStyle=orthogonalEdgeStyle;rounded=0;orthogonalLoop=1;jettySize=auto;html=1;exitX=1;exitY=0.5;exitDx=0;exitDy=0;entryX=0;entryY=0.5;entryDx=0;entryDy=0;" parent="1" source="IefzmPHaQlymBjuVDhgg-7" target="IefzmPHaQlymBjuVDhgg-31" edge="1">
          <mxGeometry relative="1" as="geometry" />
        </mxCell>
        <mxCell id="IefzmPHaQlymBjuVDhgg-7" value="drm_update_vblank_count" style="text;whiteSpace=wrap;html=1;" parent="1" vertex="1">
          <mxGeometry x="537.5" y="-310" width="150" height="30" as="geometry" />
        </mxCell>
        <mxCell id="IefzmPHaQlymBjuVDhgg-12" style="edgeStyle=orthogonalEdgeStyle;rounded=0;orthogonalLoop=1;jettySize=auto;html=1;exitX=1;exitY=0.5;exitDx=0;exitDy=0;entryX=0;entryY=0.5;entryDx=0;entryDy=0;" parent="1" source="IefzmPHaQlymBjuVDhgg-9" target="IefzmPHaQlymBjuVDhgg-11" edge="1">
          <mxGeometry relative="1" as="geometry" />
        </mxCell>
        <mxCell id="IefzmPHaQlymBjuVDhgg-9" value="__disable_vblank" style="text;whiteSpace=wrap;html=1;" parent="1" vertex="1">
          <mxGeometry x="537.5" y="-210" width="100" height="30" as="geometry" />
        </mxCell>
        <mxCell id="IefzmPHaQlymBjuVDhgg-11" value="crtc-&amp;gt;funcs-&amp;gt;disable_vblank" style="text;whiteSpace=wrap;html=1;fontColor=#FF0000;" parent="1" vertex="1">
          <mxGeometry x="674.5" y="-207.5" width="160" height="25" as="geometry" />
        </mxCell>
        <mxCell id="IefzmPHaQlymBjuVDhgg-13" value="drm_vblank_count_and_time" style="text;whiteSpace=wrap;html=1;" parent="1" vertex="1">
          <mxGeometry x="328.5" y="-130" width="167.5" height="30" as="geometry" />
        </mxCell>
        <mxCell id="IefzmPHaQlymBjuVDhgg-23" style="edgeStyle=orthogonalEdgeStyle;rounded=0;orthogonalLoop=1;jettySize=auto;html=1;exitX=1;exitY=0.5;exitDx=0;exitDy=0;entryX=0;entryY=0.5;entryDx=0;entryDy=0;" parent="1" source="IefzmPHaQlymBjuVDhgg-15" target="IefzmPHaQlymBjuVDhgg-22" edge="1">
          <mxGeometry relative="1" as="geometry" />
        </mxCell>
        <mxCell id="IefzmPHaQlymBjuVDhgg-15" value="__get_vblank_counter" style="text;whiteSpace=wrap;html=1;" parent="1" vertex="1">
          <mxGeometry x="730" y="-340" width="130" height="30" as="geometry" />
        </mxCell>
        <mxCell id="IefzmPHaQlymBjuVDhgg-22" value="&lt;font color=&quot;#ff0000&quot;&gt;crtc-&amp;gt;funcs-&amp;gt;get_vblank_counter&lt;/font&gt;" style="text;whiteSpace=wrap;html=1;" parent="1" vertex="1">
          <mxGeometry x="880" y="-340" width="180" height="30" as="geometry" />
        </mxCell>
        <mxCell id="IefzmPHaQlymBjuVDhgg-24" value="crtc-&amp;gt;funcs-&amp;gt;get_vblank_timestamp" style="text;whiteSpace=wrap;html=1;fontColor=#FF0000;" parent="1" vertex="1">
          <mxGeometry x="930" y="-290" width="200" height="30" as="geometry" />
        </mxCell>
        <mxCell id="IefzmPHaQlymBjuVDhgg-28" style="edgeStyle=orthogonalEdgeStyle;rounded=0;orthogonalLoop=1;jettySize=auto;html=1;exitX=1;exitY=0.5;exitDx=0;exitDy=0;entryX=0;entryY=0.5;entryDx=0;entryDy=0;" parent="1" source="IefzmPHaQlymBjuVDhgg-25" target="IefzmPHaQlymBjuVDhgg-24" edge="1">
          <mxGeometry relative="1" as="geometry" />
        </mxCell>
        <mxCell id="IefzmPHaQlymBjuVDhgg-25" value="drm_crtc_get_last_vbltimestamp" style="text;whiteSpace=wrap;html=1;" parent="1" vertex="1">
          <mxGeometry x="730" y="-290" width="180" height="30" as="geometry" />
        </mxCell>
        <mxCell id="IefzmPHaQlymBjuVDhgg-35" style="edgeStyle=orthogonalEdgeStyle;rounded=0;orthogonalLoop=1;jettySize=auto;html=1;exitX=1;exitY=0.5;exitDx=0;exitDy=0;entryX=0;entryY=0.5;entryDx=0;entryDy=0;" parent="1" source="IefzmPHaQlymBjuVDhgg-31" target="IefzmPHaQlymBjuVDhgg-34" edge="1">
          <mxGeometry relative="1" as="geometry" />
        </mxCell>
        <mxCell id="IefzmPHaQlymBjuVDhgg-31" value="store_vblank" style="text;whiteSpace=wrap;html=1;" parent="1" vertex="1">
          <mxGeometry x="730" y="-247.5" width="80" height="27.5" as="geometry" />
        </mxCell>
        <mxCell id="IefzmPHaQlymBjuVDhgg-34" value="&lt;font color=&quot;#0000ff&quot; style=&quot;font-size: 12px;&quot;&gt;更新blank-&amp;gt;last, vblank-&amp;gt;time, vblank-&amp;gt;count&lt;/font&gt;" style="text;html=1;align=center;verticalAlign=middle;whiteSpace=wrap;rounded=0;" parent="1" vertex="1">
          <mxGeometry x="850" y="-248.75" width="180" height="30" as="geometry" />
        </mxCell>
        <mxCell id="otfrlBmKIISTydqlMGHa-4" value="" style="edgeStyle=orthogonalEdgeStyle;rounded=0;orthogonalLoop=1;jettySize=auto;html=1;" parent="1" source="otfrlBmKIISTydqlMGHa-3" target="Cp54ddVQhLDNcRKYRIW8-71" edge="1">
          <mxGeometry relative="1" as="geometry" />
        </mxCell>
        <mxCell id="otfrlBmKIISTydqlMGHa-3" value="prepare work" style="ellipse;whiteSpace=wrap;html=1;" parent="1" vertex="1">
          <mxGeometry x="-1050" y="-520" width="140" height="80" as="geometry" />
        </mxCell>
        <mxCell id="otfrlBmKIISTydqlMGHa-8" value="" style="edgeStyle=orthogonalEdgeStyle;rounded=0;orthogonalLoop=1;jettySize=auto;html=1;" parent="1" source="otfrlBmKIISTydqlMGHa-5" target="Cp54ddVQhLDNcRKYRIW8-46" edge="1">
          <mxGeometry relative="1" as="geometry" />
        </mxCell>
        <mxCell id="otfrlBmKIISTydqlMGHa-10" style="edgeStyle=orthogonalEdgeStyle;rounded=0;orthogonalLoop=1;jettySize=auto;html=1;exitX=1;exitY=0.5;exitDx=0;exitDy=0;entryX=0;entryY=0.5;entryDx=0;entryDy=0;" parent="1" source="otfrlBmKIISTydqlMGHa-5" target="otfrlBmKIISTydqlMGHa-9" edge="1">
          <mxGeometry relative="1" as="geometry" />
        </mxCell>
        <mxCell id="otfrlBmKIISTydqlMGHa-12" style="edgeStyle=orthogonalEdgeStyle;rounded=0;orthogonalLoop=1;jettySize=auto;html=1;exitX=1;exitY=0.5;exitDx=0;exitDy=0;entryX=0;entryY=0.5;entryDx=0;entryDy=0;" parent="1" source="otfrlBmKIISTydqlMGHa-5" target="otfrlBmKIISTydqlMGHa-11" edge="1">
          <mxGeometry relative="1" as="geometry" />
        </mxCell>
        <mxCell id="otfrlBmKIISTydqlMGHa-5" value="&lt;div style=&quot;color: #383a42;background-color: #f5f5f5;font-family: Consolas, &#39;Courier New&#39;, monospace;font-weight: normal;font-size: 14px;line-height: 19px;white-space: pre;&quot;&gt;&lt;div&gt;&lt;span style=&quot;color: #4078f2;&quot;&gt;prepare_signaling&lt;/span&gt;&lt;/div&gt;&lt;/div&gt;" style="text;whiteSpace=wrap;html=1;" parent="1" vertex="1">
          <mxGeometry x="-172.99" y="-440" width="141" height="30" as="geometry" />
        </mxCell>
        <mxCell id="otfrlBmKIISTydqlMGHa-14" value="" style="edgeStyle=orthogonalEdgeStyle;rounded=0;orthogonalLoop=1;jettySize=auto;html=1;" parent="1" source="otfrlBmKIISTydqlMGHa-9" target="otfrlBmKIISTydqlMGHa-13" edge="1">
          <mxGeometry relative="1" as="geometry" />
        </mxCell>
        <mxCell id="otfrlBmKIISTydqlMGHa-9" value="&lt;div style=&quot;color: #383a42;background-color: #f5f5f5;font-family: Consolas, &#39;Courier New&#39;, monospace;font-weight: normal;font-size: 14px;line-height: 19px;white-space: pre;&quot;&gt;&lt;div&gt;&lt;span style=&quot;color: #4078f2;&quot;&gt;drm_event_reserve_init&lt;/span&gt;&lt;/div&gt;&lt;/div&gt;" style="text;whiteSpace=wrap;html=1;" parent="1" vertex="1">
          <mxGeometry x="41.01" y="-398.75" width="176.49" height="30" as="geometry" />
        </mxCell>
        <mxCell id="otfrlBmKIISTydqlMGHa-11" value="&lt;div style=&quot;color: rgb(56, 58, 66); background-color: rgb(245, 245, 245); font-family: Consolas, &amp;quot;Courier New&amp;quot;, monospace; font-weight: normal; font-size: 14px; line-height: 19px; white-space: pre;&quot;&gt;&lt;div&gt;&lt;span style=&quot;color: rgb(64, 120, 242);&quot;&gt;create_vblank_event&lt;/span&gt;&lt;/div&gt;&lt;div&gt;&lt;span style=&quot;color: rgb(64, 120, 242);&quot;&gt;&lt;span style=&quot;color: rgb(228, 86, 73);&quot;&gt;crtc_state&lt;/span&gt;&lt;span style=&quot;color: rgb(56, 58, 66);&quot;&gt;-&amp;gt;&lt;/span&gt;&lt;span style=&quot;color: rgb(228, 86, 73);&quot;&gt;event&lt;/span&gt;&lt;span style=&quot;color: rgb(56, 58, 66);&quot;&gt; &lt;/span&gt;&lt;span style=&quot;color: rgb(56, 58, 66);&quot;&gt;=&lt;/span&gt;&lt;span style=&quot;color: rgb(56, 58, 66);&quot;&gt; &lt;/span&gt;&lt;span style=&quot;color: rgb(228, 86, 73);&quot;&gt;e&lt;/span&gt;&lt;span style=&quot;color: rgb(56, 58, 66);&quot;&gt;;&lt;/span&gt;&lt;/span&gt;&lt;/div&gt;&lt;/div&gt;" style="text;whiteSpace=wrap;html=1;" parent="1" vertex="1">
          <mxGeometry x="43.51" y="-490" width="176.49" height="50" as="geometry" />
        </mxCell>
        <mxCell id="otfrlBmKIISTydqlMGHa-13" value="&lt;div style=&quot;color: #383a42;background-color: #f5f5f5;font-family: Consolas, &#39;Courier New&#39;, monospace;font-weight: normal;font-size: 14px;line-height: 19px;white-space: pre;&quot;&gt;&lt;div&gt;&lt;span style=&quot;color: #4078f2;&quot;&gt;list_add&lt;/span&gt;&lt;span style=&quot;color: #383a42;&quot;&gt;(&lt;/span&gt;&lt;span style=&quot;color: #383a42;&quot;&gt;&amp;amp;&lt;/span&gt;&lt;span style=&quot;color: #00afaf;&quot;&gt;p&lt;/span&gt;&lt;span style=&quot;color: #383a42;&quot;&gt;-&amp;gt;&lt;/span&gt;&lt;span style=&quot;color: #e45649;&quot;&gt;pending_link&lt;/span&gt;&lt;span style=&quot;color: #383a42;&quot;&gt;, &lt;/span&gt;&lt;span style=&quot;color: #383a42;&quot;&gt;&amp;amp;&lt;/span&gt;&lt;span style=&quot;color: #00afaf;&quot;&gt;file_priv&lt;/span&gt;&lt;span style=&quot;color: #383a42;&quot;&gt;-&amp;gt;&lt;/span&gt;&lt;span style=&quot;color: #e45649;&quot;&gt;pending_event_list&lt;/span&gt;&lt;span style=&quot;color: #383a42;&quot;&gt;);&lt;/span&gt;&lt;/div&gt;&lt;/div&gt;" style="text;whiteSpace=wrap;html=1;" parent="1" vertex="1">
          <mxGeometry x="255" y="-398.75" width="460" height="30" as="geometry" />
        </mxCell>
      </root>
    </mxGraphModel>
  </diagram>
</mxfile>
